<svg width="18" height="16" viewBox="0 0 18 16" fill="none" xmlns="http://www.w3.org/2000/svg">
<path d="M9.02456 15.9169L8.80856 15.7828C6.90848 14.6042 5.12253 13.2137 3.5004 11.65C2.38882 10.5305 1.52115 9.1474 0.991179 7.65039C0.516661 6.16339 0.559019 4.60217 1.11044 3.25433C1.69324 1.82977 2.81433 0.783508 4.26718 0.308228C4.50806 0.224976 4.75726 0.166199 5.00787 0.133606H5.10779C5.33697 0.100281 5.56604 0.0841064 5.80798 0.0841064H5.89978C6.42123 0.0993652 6.93448 0.191711 7.42526 0.358643H7.47476C7.50705 0.374268 7.53274 0.391418 7.54947 0.408142C7.76645 0.478027 7.92868 0.545227 8.07507 0.625916L8.39191 0.767212C8.46805 0.808044 8.55313 0.869873 8.62817 0.924438C8.67615 0.95929 8.71759 0.989441 8.75006 1.00934L8.78387 1.02911C8.85788 1.0722 8.93442 1.1167 8.99939 1.16681C9.9256 0.458435 11.023 0.0839844 12.1718 0.0839844L12.2079 0.0841064C12.7593 0.0841064 13.281 0.165283 13.7586 0.325317C15.196 0.792664 16.3074 1.83362 16.8881 3.25653C17.4297 4.58362 17.4766 6.18512 17.0166 7.65039C16.4926 9.15594 15.6255 10.5417 14.5092 11.6581C12.9023 13.2137 11.1273 14.6045 9.23337 15.7918L9.02456 15.9169ZM13.1134 2.68195C12.8331 2.68195 12.5799 2.86371 12.4833 3.13422C12.3662 3.4845 12.5531 3.8689 12.9 3.99103C13.4334 4.19159 13.7919 4.71747 13.7919 5.29962V5.32574C13.7757 5.51599 13.832 5.6994 13.9503 5.84235C14.0613 5.97748 14.2342 6.06567 14.4246 6.08441C14.7691 6.07446 15.0586 5.79578 15.0834 5.44989V5.35089C15.1085 4.18408 14.4018 3.12585 13.3247 2.71753C13.2564 2.69397 13.1853 2.68195 13.1134 2.68195Z" fill="white"/>
</svg>
